<svg width="548" height="373" viewBox="0 0 548 373" fill="none" xmlns="http://www.w3.org/2000/svg">
<path fill-rule="evenodd" clip-rule="evenodd" d="M308.281 224.29L262.09 224.29L239 264.29L285.187 264.29L308.281 224.29Z" fill="black"/>
<path fill-rule="evenodd" clip-rule="evenodd" d="M208.281 224.29L162.09 224.29L139 264.29L185.187 264.29L208.281 224.29Z" fill="black"/>
<path fill-rule="evenodd" clip-rule="evenodd" d="M152.583 0L0 264.281L46.188 264.281L198.771 0H152.583Z" fill="black"/>
<path d="M146.195 264.285L100.007 264.285L150.87 176.188L201.733 88.09L247.921 88.09L146.195 264.285Z" fill="black"/>
<path d="M195.334 352.385L149.146 352.385L250.873 176.19L297.061 176.19L195.334 352.385Z" fill="black"/>
<path d="M346.198 264.285L300.01 264.285L401.737 88.09L447.925 88.09L346.198 264.285Z" fill="black"/>
<path d="M295.338 352.385L249.15 352.385L350.877 176.19L397.065 176.19L295.338 352.385Z" fill="black"/>
<path fill-rule="evenodd" clip-rule="evenodd" d="M531.627 88.09H461.73L438.64 128.09L508.533 128.09L531.627 88.09Z" fill="black"/>
<path fill-rule="evenodd" clip-rule="evenodd" d="M455.511 224.29L383.09 224.29L360 264.29L432.417 264.29L455.511 224.29Z" fill="black"/>
<path d="M446.194 264.285L400.006 264.285L450.87 176.188L501.733 88.09L547.921 88.09L446.194 264.285Z" fill="black"/>
<path fill-rule="evenodd" clip-rule="evenodd" d="M108.281 224.29L62.0898 224.29L39 264.29L85.187 264.29L108.281 224.29Z" fill="black"/>
</svg>
