<svg width="80" height="42" viewBox="0 0 80 42" fill="none" xmlns="http://www.w3.org/2000/svg">
<g clip-path="url(#clip0_501_144)">
<path fill-rule="evenodd" clip-rule="evenodd" d="M43.86 25.2552H38.6589L36.059 29.7592H41.2596L43.86 25.2552Z" fill="#FFC812"/>
<path fill-rule="evenodd" clip-rule="evenodd" d="M32.6 25.2552H27.3989L24.799 29.7592H29.9996L32.6 25.2552Z" fill="#FFC812"/>
<path fill-rule="evenodd" clip-rule="evenodd" d="M26.3284 0L9.14746 29.7582H14.3483L31.5292 0H26.3284Z" fill="white"/>
<path d="M25.6091 29.7586H20.4083L26.1355 19.8389L31.8627 9.91898H37.0635L25.6091 29.7586Z" fill="#FFC812"/>
<path d="M31.1423 39.6787H25.9414L37.3959 19.8391H42.5967L31.1423 39.6787Z" fill="#FFC812"/>
<path d="M48.1295 29.7586H42.9287L54.3832 9.91898H59.584L48.1295 29.7586Z" fill="white"/>
<path d="M42.4027 39.6787H37.2019L48.6564 19.8391H53.8572L42.4027 39.6787Z" fill="white"/>
<path fill-rule="evenodd" clip-rule="evenodd" d="M69.009 9.91898H61.1385L58.5386 14.423H66.4086L69.009 9.91898Z" fill="white"/>
<path fill-rule="evenodd" clip-rule="evenodd" d="M60.4382 25.2552H52.2835L49.6836 29.7592H57.8378L60.4382 25.2552Z" fill="white"/>
<path d="M59.3891 29.7586H54.1884L59.9157 19.8389L65.6429 9.91898H70.8437L59.3891 29.7586Z" fill="white"/>
<path fill-rule="evenodd" clip-rule="evenodd" d="M21.34 25.2552H16.1389L13.5389 29.7592H18.7396L21.34 25.2552Z" fill="white"/>
</g>
<defs>
<clipPath id="clip0_501_144">
<rect width="61.7051" height="42" fill="white" transform="translate(9.14746)"/>
</clipPath>
</defs>
</svg>
